<svg xmlns="http://www.w3.org/2000/svg" xmlns:xlink="http://www.w3.org/1999/xlink" width="58.147" height="48.086" viewBox="0 0 58.147 48.086">
  <defs>
    <filter id="Ellipse_110" x="24.553" y="14.492" width="33.594" height="33.594" filterUnits="userSpaceOnUse">
      <feOffset dy="3" input="SourceAlpha"/>
      <feGaussianBlur stdDeviation="3" result="blur"/>
      <feFlood flood-opacity="0.078"/>
      <feComposite operator="in" in2="blur"/>
      <feComposite in="SourceGraphic"/>
    </filter>
  </defs>
  <g id="Block_card_-_icon" data-name="Block card - icon" transform="translate(-709.927 -1990.915)">
    <g id="Icon_feather-credit-card" data-name="Icon feather-credit-card" transform="translate(710.927 1991.915)">
      <path id="Path_51" data-name="Path 51" d="M5.009,6H36.586a3.509,3.509,0,0,1,3.509,3.509V30.56a3.509,3.509,0,0,1-3.509,3.509H5.009A3.509,3.509,0,0,1,1.5,30.56V9.509A3.509,3.509,0,0,1,5.009,6Z" transform="translate(-1.5 -6)" fill="none" stroke="#f07e61" stroke-linecap="round" stroke-linejoin="round" stroke-width="2"/>
      <path id="Path_52" data-name="Path 52" d="M1.5,15H40.095" transform="translate(-1.5 -4.474)" fill="none" stroke="#f07e61" stroke-linecap="round" stroke-linejoin="round" stroke-width="2"/>
    </g>
    <g transform="matrix(1, 0, 0, 1, 709.93, 1990.91)" filter="url(#Ellipse_110)">
      <ellipse id="Ellipse_110-2" data-name="Ellipse 110" cx="7.797" cy="7.797" rx="7.797" ry="7.797" transform="translate(33.55 20.49)" fill="#fff"/>
    </g>
    <path id="Icon_material-block" data-name="Icon material-block" d="M8,3a5,5,0,1,0,5,5A5,5,0,0,0,8,3ZM4,8A4,4,0,0,1,8,4a3.951,3.951,0,0,1,2.45.845L4.845,10.45A3.951,3.951,0,0,1,4,8Zm4,4a3.951,3.951,0,0,1-2.45-.845L11.155,5.55A3.951,3.951,0,0,1,12,8,4,4,0,0,1,8,12Z" transform="translate(743.297 2011)" fill="#3f3d56"/>
  </g>
</svg>
