<svg xmlns="http://www.w3.org/2000/svg" width="49.925" height="50.02" viewBox="0 0 49.925 50.02">
  <g id="Super_transfer_-_icon" data-name="Super transfer - icon" transform="translate(-877 -1849.187)">
    <path id="flying-money" d="M27.945,18.33a9.1,9.1,0,1,0,6.422,2.675,9,9,0,0,0-6.422-2.675ZM33.33,32.877a7.587,7.587,0,0,1-10.77,0h0a7.7,7.7,0,0,1,0-10.842,7.587,7.587,0,0,1,10.77,0A7.7,7.7,0,0,1,33.33,32.877ZM15.846,15.292a.87.87,0,0,0,0,1.227.86.86,0,0,0,1.22,0,.872.872,0,0,0,0-1.227.86.86,0,0,0-1.22,0ZM48.7,31.036l-7.372-7.411,5.643-5.674a4.219,4.219,0,0,0,.1-5.828l.71-.714a4.22,4.22,0,0,0,.059-5.875A4.221,4.221,0,0,0,47.379.156l-.407-.409a.731.731,0,0,0-1.037,0L37.4,8.328a8.835,8.835,0,0,0-2.332,3.81,9.2,9.2,0,0,0,.137,5.329L26.828,9.044h0L24.39,6.593a4.145,4.145,0,0,0-2.958-1.232h0a4.146,4.146,0,0,0-2.959,1.232L9.631,15.483h0L7.193,17.938a4.22,4.22,0,0,0,0,5.939L18.349,35.1a9.226,9.226,0,0,0-5.811-.307,8.769,8.769,0,0,0-3.787,2.34L.21,45.719a.73.73,0,0,0,0,1.031l.407.414a4.169,4.169,0,0,0,5.355.474,4.167,4.167,0,0,0,5.851-.065l.7-.708a4.142,4.142,0,0,0,2.845,1.122h0a4.146,4.146,0,0,0,2.96-1.237l5.8-5.836,4.929,4.957h0L31.5,48.32a4.168,4.168,0,0,0,5.916,0l2.438-2.451h0l6.4-6.436h0L48.7,36.978a4.218,4.218,0,0,0,0-5.942ZM36.473,12.547a7.391,7.391,0,0,1,1.96-3.185L46.451,1.3a2.754,2.754,0,0,1-.108,3.759l-6.1,6.133a.731.731,0,1,0,1.037,1.032l5.579-5.609a2.755,2.755,0,0,1-.109,3.759L45.537,11.6h0l-3.663,3.682a.731.731,0,1,0,1.03,1.033l3.138-3.156a2.754,2.754,0,0,1-.108,3.759l-5.621,5.656q-.3-.272-.585-.556L39.713,22C36.858,19.143,35.591,15.553,36.473,12.547ZM19.505,7.623a2.706,2.706,0,0,1,3.843,0l1.905,1.907a6.136,6.136,0,0,1-7.634,0ZM8.225,22.846a2.754,2.754,0,0,1,0-3.875l1.89-1.9a6.248,6.248,0,0,1,0,7.674Zm9.069,22.873a2.7,2.7,0,0,1-3.733.1l3.143-3.16a.731.731,0,1,0-1.037-1.032l-3.661,3.681h0L10.785,46.54a2.706,2.706,0,0,1-3.734.1l5.584-5.615A.731.731,0,0,0,11.6,40L5.5,46.128h0a2.705,2.705,0,0,1-3.733.1L9.791,38.16a7.329,7.329,0,0,1,3.161-1.965c3.191-.944,7.043.569,9.963,3.867Zm19.089,1.57a2.706,2.706,0,0,1-3.843,0l-1.9-1.906a6.136,6.136,0,0,1,7.634,0Zm2.929-2.953a7.606,7.606,0,0,0-9.71,0L11.153,25.79a7.715,7.715,0,0,0,0-9.763l5.422-5.453a7.552,7.552,0,0,0,4.855,1.755h0a7.55,7.55,0,0,0,4.854-1.755l18.452,18.55a7.714,7.714,0,0,0,0,9.762Zm8.352-8.4-1.89,1.9a6.241,6.241,0,0,1,0-7.674l1.89,1.9a2.754,2.754,0,0,1,0,3.874Zm-8.841,2.452a.872.872,0,0,0,0,1.227.858.858,0,0,0,1.22,0,.87.87,0,0,0,0-1.227.86.86,0,0,0-1.22,0Z" transform="translate(877.003 1849.656)" fill="#f07e61"/>
    <path id="Path_19096" data-name="Path 19096" d="M1.13,7.463,1.119,0H2.26L6.93,5.746l-.554.011L6.365,0H7.729L7.74,7.463H6.6L1.919,1.716l.565-.011.011,5.757ZM0,4.84V4.094H1.642l.011.746ZM0,3.369V2.623H1.642l.011.746ZM7.239,4.84l.021-.746H8.849l.011.746Zm0-1.471.021-.746H8.849l.011.746Z" transform="translate(899.349 1876.931) rotate(-41)" fill="#3f3d56"/>
  </g>
</svg>
