<svg xmlns="http://www.w3.org/2000/svg" width="75" height="75" viewBox="0 0 75 75">
  <g id="Super_transfer" data-name="Super transfer" transform="translate(-175 -978)">
    <g id="Ellipse_197" data-name="Ellipse 197" transform="translate(175 978)" fill="none" stroke="#9b9aa5" stroke-width="1">
      <circle cx="37.5" cy="37.5" r="37.5" stroke="none"/>
      <circle cx="37.5" cy="37.5" r="37" fill="none"/>
    </g>
    <g id="Super_transfer_-_icon" data-name="Super transfer - icon" transform="translate(-682.402 -851.177)">
      <path id="flying-money" d="M19.782,12.839a6.439,6.439,0,1,0,4.546,1.894,6.369,6.369,0,0,0-4.546-1.894Zm3.812,10.3a5.371,5.371,0,0,1-7.624,0h0a5.448,5.448,0,0,1,0-7.675,5.371,5.371,0,0,1,7.624,0A5.448,5.448,0,0,1,23.594,23.137ZM11.216,10.688a.616.616,0,0,0,0,.868.609.609,0,0,0,.864,0,.617.617,0,0,0,0-.868.609.609,0,0,0-.864,0ZM34.475,21.834l-5.219-5.246,3.995-4.017a2.987,2.987,0,0,0,.074-4.126l.5-.505A2.988,2.988,0,0,0,33.87,3.78a2.988,2.988,0,0,0-.331-3.807l-.288-.289a.518.518,0,0,0-.734,0L26.475,5.759a6.254,6.254,0,0,0-1.651,2.7,6.513,6.513,0,0,0,.1,3.773l-5.93-5.963h0L17.265,4.531a2.934,2.934,0,0,0-2.094-.872h0a2.935,2.935,0,0,0-2.094.872l-6.26,6.293h0L5.091,12.562a2.988,2.988,0,0,0,0,4.2l7.9,7.944a6.531,6.531,0,0,0-4.114-.217,6.207,6.207,0,0,0-2.681,1.657L.148,32.228a.517.517,0,0,0,0,.73l.288.293a2.951,2.951,0,0,0,3.79.335,2.95,2.95,0,0,0,4.142-.046l.5-.5a2.932,2.932,0,0,0,2.014.795h0a2.935,2.935,0,0,0,2.1-.876l4.107-4.131,3.489,3.509h0L22.3,34.069a2.95,2.95,0,0,0,4.188,0l1.726-1.735h0l4.534-4.556h0l1.726-1.738a2.986,2.986,0,0,0,0-4.206ZM25.819,8.745A5.232,5.232,0,0,1,27.206,6.49L32.882.784a1.949,1.949,0,0,1-.077,2.661L28.487,7.786a.518.518,0,1,0,.734.73L33.17,4.546a1.95,1.95,0,0,1-.077,2.661l-.858.867h0l-2.593,2.607a.518.518,0,1,0,.729.731l2.221-2.234a1.949,1.949,0,0,1-.077,2.661l-3.979,4q-.215-.193-.414-.393l-.01-.01C26.091,13.414,25.194,10.873,25.819,8.745ZM13.807,5.26a1.916,1.916,0,0,1,2.72,0l1.349,1.35a4.343,4.343,0,0,1-5.4,0ZM5.822,16.036a1.949,1.949,0,0,1,0-2.743L7.16,11.948a4.423,4.423,0,0,1,0,5.433Zm6.42,16.192A1.914,1.914,0,0,1,9.6,32.3l2.225-2.237a.518.518,0,1,0-.734-.73L8.5,31.939h0l-.865.87a1.916,1.916,0,0,1-2.643.074l3.953-3.975a.518.518,0,0,0-.731-.732L3.89,32.517h0a1.915,1.915,0,0,1-2.642.074L6.93,26.877a5.188,5.188,0,0,1,2.238-1.391c2.259-.668,4.986.4,7.053,2.738Zm13.513,1.111a1.916,1.916,0,0,1-2.72,0l-1.342-1.35a4.343,4.343,0,0,1,5.4,0Zm2.074-2.09a5.384,5.384,0,0,0-6.873,0L7.895,18.12a5.462,5.462,0,0,0,0-6.911l3.838-3.86A5.346,5.346,0,0,0,15.17,8.591h0a5.344,5.344,0,0,0,3.436-1.243L31.668,20.48a5.461,5.461,0,0,0,0,6.911ZM33.741,25.3,32.4,26.651a4.418,4.418,0,0,1,0-5.433l1.338,1.345a1.949,1.949,0,0,1,0,2.743Zm-6.258,1.736a.617.617,0,0,0,0,.868.607.607,0,0,0,.864,0,.616.616,0,0,0,0-.868.609.609,0,0,0-.864,0Z" transform="translate(877.003 1849.656)" fill="#9b9aa5"/>
      <path id="Path_19096" data-name="Path 19096" d="M.8,5.283.792,0H1.6L4.905,4.068l-.392.008L4.505,0h.966l.008,5.283H4.671L1.358,1.215l.4-.008.008,4.075ZM0,3.426V2.9H1.162l.008.528ZM0,2.385V1.857H1.162l.008.528ZM5.124,3.426,5.139,2.9H6.264l.008.528Zm0-1.041.015-.528H6.264l.008.528Z" transform="translate(892.821 1868.827) rotate(-41)" fill="#9b9aa5"/>
    </g>
  </g>
</svg>
