<svg xmlns="http://www.w3.org/2000/svg" width="33.522" height="24.38" viewBox="0 0 33.522 24.38">
  <g id="add-card" transform="translate(-1 -4)">
    <path id="Path_20040" data-name="Path 20040" d="M26.142,4H4.809A3.809,3.809,0,0,0,1,7.809V20a3.809,3.809,0,0,0,3.809,3.809H17a.762.762,0,0,0,0-1.524H4.809A2.286,2.286,0,0,1,2.524,20V11.619H29.189a.762.762,0,0,0,.762-.762V7.809A3.809,3.809,0,0,0,26.142,4ZM2.524,7.809A2.286,2.286,0,0,1,4.809,5.524H26.142a2.286,2.286,0,0,1,2.286,2.286v2.286H2.524Z" transform="translate(0 0)" fill="#9c9ba6"/>
    <path id="Path_20041" data-name="Path 20041" d="M20.857,11a6.857,6.857,0,1,0,6.857,6.857A6.857,6.857,0,0,0,20.857,11Zm0,12.19a5.333,5.333,0,1,1,5.333-5.333,5.333,5.333,0,0,1-5.333,5.333Z" transform="translate(6.809 3.666)" fill="#9c9ba6"/>
    <path id="Path_20042" data-name="Path 20042" d="M21.571,16.286a.762.762,0,0,1-.762.762h-.762v.762a.762.762,0,0,1-1.524,0v-.762h-.762a.762.762,0,0,1,0-1.524h.762v-.762a.762.762,0,0,1,1.524,0v.762h.762A.762.762,0,0,1,21.571,16.286Z" transform="translate(8.38 5.237)" fill="#9c9ba6"/>
  </g>
</svg>
