<svg xmlns="http://www.w3.org/2000/svg" width="17.716" height="17.701" viewBox="0 0 17.716 17.701">
  <g id="Icon_ionic-ios-rocket" data-name="Icon ionic-ios-rocket" transform="translate(0)">
    <path id="Path_19094" data-name="Path 19094" d="M20.989,3.612a.188.188,0,0,0-.14-.145C18.532,2.9,13.181,4.919,10.281,7.819A12.532,12.532,0,0,0,8.872,9.483a5.244,5.244,0,0,0-2.55.319c-2.15.945-2.776,3.414-2.95,4.475a.381.381,0,0,0,.417.443l3.453-.379a7.676,7.676,0,0,0,.047.779.773.773,0,0,0,.226.473L8.851,16.93a.773.773,0,0,0,.473.226,7.66,7.66,0,0,0,.775.047l-.379,3.449a.381.381,0,0,0,.443.417c1.06-.17,3.534-.8,4.475-2.946a5.267,5.267,0,0,0,.324-2.542,12.552,12.552,0,0,0,1.669-1.409C19.541,11.276,21.546,6.043,20.989,3.612ZM14.041,10.42a1.818,1.818,0,1,1,2.572,0A1.817,1.817,0,0,1,14.041,10.42Z" transform="translate(-3.366 -3.372)" fill="#fff"/>
    <path id="Path_19095" data-name="Path 19095" d="M9.712,25.408h0a1.615,1.615,0,0,1-.843.341,1.146,1.146,0,0,1-1.32-1.32,1.583,1.583,0,0,1,.336-.839l0,0a.142.142,0,0,0-.119-.243,1.957,1.957,0,0,0-1.145.558c-.766.766-.839,3.61-.839,3.61s2.848-.072,3.615-.839a1.944,1.944,0,0,0,.558-1.145A.146.146,0,0,0,9.712,25.408Z" transform="translate(-4.321 -11.25)" fill="#fff"/>
  </g>
</svg>
